<svg width="201" height="116" viewBox="0 0 201 116" fill="none" xmlns="http://www.w3.org/2000/svg">
<path d="M8.03906 100.703C8.02995 101.669 7.92969 102.444 7.73828 103.027C7.55599 103.602 7.24609 104.158 6.80859 104.695C6.37109 105.233 5.73307 105.944 4.89453 106.828C4.05599 107.703 3.58659 108.592 3.48633 109.494L3.45898 110C3.45898 110.993 3.72331 111.75 4.25195 112.27C4.7806 112.798 5.54167 113.062 6.53516 113.062C7.44661 113.062 8.1849 112.803 8.75 112.283C9.32422 111.773 9.61133 111.103 9.61133 110.273H12.1406C12.1224 111.741 11.5983 112.939 10.5684 113.869C9.54753 114.799 8.20312 115.264 6.53516 115.264C4.7487 115.264 3.36784 114.803 2.39258 113.883C1.41732 112.971 0.929688 111.7 0.929688 110.068C0.929688 108.492 1.65885 106.906 3.11719 105.311L4.60742 103.766C5.20898 103.055 5.50977 102.034 5.50977 100.703H8.03906ZM8.14844 96.3691C8.14844 96.7793 8.02083 97.1257 7.76562 97.4082C7.51953 97.6908 7.15039 97.832 6.6582 97.832C6.16602 97.832 5.79232 97.6908 5.53711 97.4082C5.2819 97.1257 5.1543 96.7793 5.1543 96.3691C5.1543 95.9681 5.2819 95.6309 5.53711 95.3574C5.79232 95.084 6.16602 94.9473 6.6582 94.9473C7.15039 94.9473 7.51953 95.084 7.76562 95.3574C8.02083 95.6309 8.14844 95.9681 8.14844 96.3691ZM30.2148 103.684C29.9688 105.789 29.1895 107.416 27.877 108.564C26.5736 109.704 24.8372 110.273 22.668 110.273C20.3164 110.273 18.4297 109.43 17.0078 107.744C15.5951 106.058 14.8887 103.802 14.8887 100.977V99.0625C14.8887 97.2122 15.2168 95.5853 15.873 94.1816C16.5384 92.778 17.4772 91.7025 18.6895 90.9551C19.9017 90.1986 21.3053 89.8203 22.9004 89.8203C25.015 89.8203 26.7103 90.4128 27.9863 91.5977C29.2624 92.7734 30.0052 94.4049 30.2148 96.4922H27.5762C27.3483 94.9062 26.8516 93.7578 26.0859 93.0469C25.3294 92.3359 24.2676 91.9805 22.9004 91.9805C21.2233 91.9805 19.9062 92.6003 18.9492 93.8398C18.0013 95.0794 17.5273 96.8431 17.5273 99.1309V101.059C17.5273 103.219 17.9785 104.937 18.8809 106.213C19.7832 107.489 21.0456 108.127 22.668 108.127C24.1263 108.127 25.2428 107.799 26.0176 107.143C26.8014 106.477 27.321 105.324 27.5762 103.684H30.2148ZM32.7441 102.467C32.7441 101.018 33.0267 99.7142 33.5918 98.5566C34.166 97.3991 34.959 96.5059 35.9707 95.877C36.9915 95.248 38.1536 94.9336 39.457 94.9336C41.4714 94.9336 43.0983 95.6309 44.3379 97.0254C45.5866 98.4199 46.2109 100.275 46.2109 102.59V102.768C46.2109 104.208 45.9329 105.502 45.377 106.65C44.8301 107.79 44.0417 108.678 43.0117 109.316C41.9909 109.954 40.8151 110.273 39.4844 110.273C37.4792 110.273 35.8522 109.576 34.6035 108.182C33.3639 106.787 32.7441 104.941 32.7441 102.645V102.467ZM35.2871 102.768C35.2871 104.408 35.6654 105.725 36.4219 106.719C37.1875 107.712 38.2083 108.209 39.4844 108.209C40.7695 108.209 41.7904 107.708 42.5469 106.705C43.3034 105.693 43.6816 104.281 43.6816 102.467C43.6816 100.844 43.2943 99.5319 42.5195 98.5293C41.7539 97.5176 40.7331 97.0117 39.457 97.0117C38.2083 97.0117 37.2012 97.5085 36.4355 98.502C35.6699 99.4954 35.2871 100.917 35.2871 102.768ZM40.6055 89H43.668L40.0039 93.0195H37.9668L40.6055 89ZM51.7617 95.207L51.8301 96.8477C52.9147 95.5716 54.3776 94.9336 56.2188 94.9336C58.2878 94.9336 59.696 95.7266 60.4434 97.3125C60.9355 96.6016 61.5736 96.0273 62.3574 95.5898C63.1504 95.1523 64.0846 94.9336 65.1602 94.9336C68.4049 94.9336 70.0547 96.6517 70.1094 100.088V110H67.5801V100.238C67.5801 99.181 67.3385 98.3926 66.8555 97.873C66.3724 97.3444 65.5612 97.0801 64.4219 97.0801C63.4831 97.0801 62.7038 97.3626 62.084 97.9277C61.4642 98.4837 61.1042 99.2357 61.0039 100.184V110H58.4609V100.307C58.4609 98.1556 57.4082 97.0801 55.3027 97.0801C53.6439 97.0801 52.5091 97.7865 51.8984 99.1992V110H49.3691V95.207H51.7617ZM73.2676 102.467C73.2676 101.018 73.5501 99.7142 74.1152 98.5566C74.6895 97.3991 75.4824 96.5059 76.4941 95.877C77.515 95.248 78.6771 94.9336 79.9805 94.9336C81.9948 94.9336 83.6217 95.6309 84.8613 97.0254C86.11 98.4199 86.7344 100.275 86.7344 102.59V102.768C86.7344 104.208 86.4564 105.502 85.9004 106.65C85.3535 107.79 84.5651 108.678 83.5352 109.316C82.5143 109.954 81.3385 110.273 80.0078 110.273C78.0026 110.273 76.3757 109.576 75.127 108.182C73.8874 106.787 73.2676 104.941 73.2676 102.645V102.467ZM75.8105 102.768C75.8105 104.408 76.1888 105.725 76.9453 106.719C77.7109 107.712 78.7318 108.209 80.0078 108.209C81.293 108.209 82.3138 107.708 83.0703 106.705C83.8268 105.693 84.2051 104.281 84.2051 102.467C84.2051 100.844 83.8177 99.5319 83.043 98.5293C82.2773 97.5176 81.2565 97.0117 79.9805 97.0117C78.7318 97.0117 77.7246 97.5085 76.959 98.502C76.1934 99.4954 75.8105 100.917 75.8105 102.768ZM104.002 97.4766C103.619 97.4128 103.204 97.3809 102.758 97.3809C101.099 97.3809 99.9733 98.0872 99.3809 99.5V110H96.8516V95.207H99.3125L99.3535 96.916C100.183 95.5944 101.359 94.9336 102.881 94.9336C103.373 94.9336 103.747 94.9974 104.002 95.125V97.4766ZM112.205 110.273C110.2 110.273 108.568 109.617 107.311 108.305C106.053 106.983 105.424 105.219 105.424 103.014V102.549C105.424 101.081 105.702 99.7734 106.258 98.625C106.823 97.4674 107.607 96.5651 108.609 95.918C109.621 95.2617 110.715 94.9336 111.891 94.9336C113.814 94.9336 115.309 95.5671 116.375 96.834C117.441 98.1009 117.975 99.9147 117.975 102.275V103.328H107.953C107.99 104.786 108.413 105.967 109.225 106.869C110.045 107.762 111.084 108.209 112.342 108.209C113.235 108.209 113.992 108.027 114.611 107.662C115.231 107.298 115.773 106.814 116.238 106.213L117.783 107.416C116.544 109.321 114.684 110.273 112.205 110.273ZM111.891 97.0117C110.87 97.0117 110.013 97.3854 109.32 98.1328C108.628 98.8711 108.199 99.9102 108.035 101.25H115.445V101.059C115.372 99.7734 115.026 98.7799 114.406 98.0781C113.786 97.3672 112.948 97.0117 111.891 97.0117ZM126.848 108.209C127.75 108.209 128.538 107.936 129.213 107.389C129.887 106.842 130.261 106.158 130.334 105.338H132.727C132.681 106.186 132.389 106.992 131.852 107.758C131.314 108.523 130.594 109.134 129.691 109.59C128.798 110.046 127.85 110.273 126.848 110.273C124.833 110.273 123.229 109.604 122.035 108.264C120.85 106.915 120.258 105.074 120.258 102.74V102.316C120.258 100.876 120.522 99.5957 121.051 98.4746C121.579 97.3535 122.336 96.4831 123.32 95.8633C124.314 95.2435 125.485 94.9336 126.834 94.9336C128.493 94.9336 129.869 95.4303 130.963 96.4238C132.066 97.4173 132.654 98.707 132.727 100.293H130.334C130.261 99.3359 129.896 98.5521 129.24 97.9414C128.593 97.3216 127.791 97.0117 126.834 97.0117C125.549 97.0117 124.551 97.4766 123.84 98.4062C123.138 99.3268 122.787 100.662 122.787 102.412V102.891C122.787 104.595 123.138 105.908 123.84 106.828C124.542 107.749 125.544 108.209 126.848 108.209ZM138.318 110H135.789V95.207H138.318V110ZM135.584 91.2832C135.584 90.873 135.707 90.5267 135.953 90.2441C136.208 89.9616 136.582 89.8203 137.074 89.8203C137.566 89.8203 137.94 89.9616 138.195 90.2441C138.451 90.5267 138.578 90.873 138.578 91.2832C138.578 91.6934 138.451 92.0352 138.195 92.3086C137.94 92.582 137.566 92.7188 137.074 92.7188C136.582 92.7188 136.208 92.582 135.953 92.3086C135.707 92.0352 135.584 91.6934 135.584 91.2832ZM148.312 108.209C149.215 108.209 150.003 107.936 150.678 107.389C151.352 106.842 151.726 106.158 151.799 105.338H154.191C154.146 106.186 153.854 106.992 153.316 107.758C152.779 108.523 152.059 109.134 151.156 109.59C150.263 110.046 149.315 110.273 148.312 110.273C146.298 110.273 144.694 109.604 143.5 108.264C142.315 106.915 141.723 105.074 141.723 102.74V102.316C141.723 100.876 141.987 99.5957 142.516 98.4746C143.044 97.3535 143.801 96.4831 144.785 95.8633C145.779 95.2435 146.95 94.9336 148.299 94.9336C149.958 94.9336 151.334 95.4303 152.428 96.4238C153.531 97.4173 154.118 98.707 154.191 100.293H151.799C151.726 99.3359 151.361 98.5521 150.705 97.9414C150.058 97.3216 149.256 97.0117 148.299 97.0117C147.014 97.0117 146.016 97.4766 145.305 98.4062C144.603 99.3268 144.252 100.662 144.252 102.412V102.891C144.252 104.595 144.603 105.908 145.305 106.828C146.007 107.749 147.009 108.209 148.312 108.209ZM159.783 110H157.254V89H159.783V110ZM172.977 110C172.831 109.708 172.712 109.189 172.621 108.441C171.445 109.663 170.042 110.273 168.41 110.273C166.952 110.273 165.753 109.863 164.814 109.043C163.885 108.214 163.42 107.165 163.42 105.898C163.42 104.358 164.003 103.164 165.17 102.316C166.346 101.46 167.995 101.031 170.119 101.031H172.58V99.8691C172.58 98.985 172.316 98.2832 171.787 97.7637C171.258 97.235 170.479 96.9707 169.449 96.9707C168.547 96.9707 167.79 97.1986 167.18 97.6543C166.569 98.11 166.264 98.6615 166.264 99.3086H163.721C163.721 98.5703 163.98 97.8594 164.5 97.1758C165.029 96.4831 165.74 95.9362 166.633 95.5352C167.535 95.1341 168.524 94.9336 169.6 94.9336C171.304 94.9336 172.639 95.362 173.605 96.2188C174.572 97.0664 175.073 98.2376 175.109 99.7324V106.541C175.109 107.899 175.283 108.979 175.629 109.781V110H172.977ZM168.779 108.072C169.572 108.072 170.324 107.867 171.035 107.457C171.746 107.047 172.261 106.514 172.58 105.857V102.822H170.598C167.499 102.822 165.949 103.729 165.949 105.543C165.949 106.336 166.214 106.956 166.742 107.402C167.271 107.849 167.95 108.072 168.779 108.072ZM186.225 97.4766C185.842 97.4128 185.427 97.3809 184.98 97.3809C183.322 97.3809 182.196 98.0872 181.604 99.5V110H179.074V95.207H181.535L181.576 96.916C182.406 95.5944 183.581 94.9336 185.104 94.9336C185.596 94.9336 185.969 94.9974 186.225 95.125V97.4766ZM191.529 104.395C191.548 103.31 191.671 102.453 191.898 101.824C192.126 101.195 192.591 100.498 193.293 99.7324L195.084 97.8867C195.85 97.0208 196.232 96.0911 196.232 95.0977C196.232 94.1406 195.982 93.3932 195.48 92.8555C194.979 92.3086 194.25 92.0352 193.293 92.0352C192.363 92.0352 191.616 92.2812 191.051 92.7734C190.486 93.2656 190.203 93.9264 190.203 94.7559H187.674C187.692 93.2793 188.216 92.0898 189.246 91.1875C190.285 90.276 191.634 89.8203 193.293 89.8203C195.016 89.8203 196.355 90.2852 197.312 91.2148C198.279 92.1354 198.762 93.4023 198.762 95.0156C198.762 96.6107 198.023 98.1829 196.547 99.7324L195.057 101.209C194.391 101.947 194.059 103.009 194.059 104.395H191.529ZM191.42 108.729C191.42 108.318 191.543 107.977 191.789 107.703C192.044 107.421 192.418 107.279 192.91 107.279C193.402 107.279 193.776 107.421 194.031 107.703C194.286 107.977 194.414 108.318 194.414 108.729C194.414 109.139 194.286 109.48 194.031 109.754C193.776 110.018 193.402 110.15 192.91 110.15C192.418 110.15 192.044 110.018 191.789 109.754C191.543 109.48 191.42 109.139 191.42 108.729Z" fill="white"/>
<path d="M125.157 15.6566C125.157 15.2794 125.055 14.9261 124.878 14.6218L121.536 7.93717C121.187 7.23899 120.474 6.79818 119.693 6.79818H109.612C108.681 2.90444 105.173 0 100.998 0C96.8228 0 93.3153 2.90444 92.3838 6.79818H82.3026C81.5224 6.79818 80.8093 7.23899 80.46 7.93717L77.061 14.7354C76.7416 15.3739 76.7759 16.1323 77.1511 16.7396C77.5164 17.3309 78.1549 17.6939 78.8473 17.7129L85.3675 58.2667C85.5281 59.2655 86.3899 59.9998 87.4012 59.9998H114.595C115.606 59.9998 116.468 59.2655 116.628 58.2667L123.148 17.7139C124.262 17.6863 125.157 16.7768 125.157 15.6566ZM100.998 4.1202C102.873 4.1202 104.496 5.21475 105.264 6.79838H96.7315C97.4994 5.21475 99.1232 4.1202 100.998 4.1202ZM83.5759 10.9186H118.42L119.759 13.5966H82.237L83.5759 10.9186ZM112.839 55.8798H89.1568L83.021 17.7168H118.975L112.839 55.8798Z" fill="white"/>
<path d="M97.6847 32.8305C98.3746 33.2287 99.2562 32.9927 99.6546 32.3026L101.069 29.8537L102.295 31.9786C101.54 31.8901 100.841 32.402 100.707 33.1584C100.569 33.9428 101.093 34.6907 101.877 34.8293L105.225 35.42C105.308 35.4346 105.392 35.4418 105.475 35.4418C105.769 35.4418 106.058 35.3519 106.302 35.181C106.616 34.9616 106.829 34.6269 106.895 34.2503L107.486 30.9028C107.624 30.1184 107.1 29.3703 106.316 29.2321C105.558 29.0984 104.841 29.5798 104.665 30.3149L102.317 26.2487C102.06 25.8024 101.584 25.5277 101.069 25.5277C100.553 25.5277 100.077 25.8024 99.8195 26.2487L97.1566 30.8608C96.7587 31.5501 96.995 32.4321 97.6847 32.8305Z" fill="white"/>
<path d="M106.1 36.3935C105.41 36.7917 105.174 37.6733 105.572 38.3632L106.805 40.4978H104.798C105.313 39.9232 105.287 39.04 104.727 38.4994C104.154 37.9459 103.241 37.9618 102.688 38.5347L100.326 40.9796C100.061 41.2545 99.9149 41.624 99.9213 42.0065C99.928 42.3891 100.086 42.7531 100.361 43.019L102.807 45.3804C103.087 45.6509 103.448 45.7852 103.808 45.7852C104.186 45.7852 104.563 45.638 104.846 45.345C105.375 44.7974 105.382 43.9398 104.882 43.3818H109.303C109.818 43.3818 110.294 43.1071 110.551 42.6608C110.809 42.2149 110.809 41.6652 110.551 41.219L108.071 36.9214C107.672 36.2323 106.79 35.9949 106.1 36.3935Z" fill="white"/>
<path d="M92.6938 43.382H96.6429C97.4395 43.382 98.0851 42.7366 98.0851 41.94C98.0851 41.1434 97.4397 40.4978 96.6429 40.4978H95.1916L96.0874 38.9467C96.3003 39.5117 96.8391 39.8814 97.431 39.8814C97.5462 39.8814 97.6635 39.8673 97.7805 39.838C98.5532 39.6459 99.0235 38.8632 98.831 38.0903L98.0096 34.7917C97.9173 34.4208 97.6809 34.1014 97.3532 33.9042C97.0251 33.7071 96.6324 33.6481 96.2615 33.741L92.9629 34.5632C92.1902 34.7557 91.7199 35.5384 91.9126 36.3111C92.1051 37.0836 92.8868 37.5541 93.6607 37.3614L93.6736 37.3582L91.4447 41.2184C91.1874 41.6646 91.1874 42.2143 91.4447 42.6604C91.7025 43.1073 92.1785 43.382 92.6938 43.382Z" fill="white"/>
</svg>
