<svg width="85" height="111" viewBox="0 0 85 111" fill="none" xmlns="http://www.w3.org/2000/svg">
<path d="M17.6094 106H14.9707V96.7988H4.93555V106H2.31055V86.0938H4.93555V94.6523H14.9707V86.0938H17.6094V106ZM21.2051 98.4668C21.2051 97.0176 21.4876 95.7142 22.0527 94.5566C22.627 93.3991 23.4199 92.5059 24.4316 91.877C25.4525 91.248 26.6146 90.9336 27.918 90.9336C29.9323 90.9336 31.5592 91.6309 32.7988 93.0254C34.0475 94.4199 34.6719 96.2747 34.6719 98.5898V98.7676C34.6719 100.208 34.3939 101.502 33.8379 102.65C33.291 103.79 32.5026 104.678 31.4727 105.316C30.4518 105.954 29.276 106.273 27.9453 106.273C25.9401 106.273 24.3132 105.576 23.0645 104.182C21.8249 102.787 21.2051 100.941 21.2051 98.6445V98.4668ZM23.748 98.7676C23.748 100.408 24.1263 101.725 24.8828 102.719C25.6484 103.712 26.6693 104.209 27.9453 104.209C29.2305 104.209 30.2513 103.708 31.0078 102.705C31.7643 101.693 32.1426 100.281 32.1426 98.4668C32.1426 96.8444 31.7552 95.5319 30.9805 94.5293C30.2148 93.5176 29.194 93.0117 27.918 93.0117C26.6693 93.0117 25.6621 93.5085 24.8965 94.502C24.1309 95.4954 23.748 96.9173 23.748 98.7676ZM40.2227 91.207L40.291 92.8477C41.3757 91.5716 42.8385 90.9336 44.6797 90.9336C46.7487 90.9336 48.1569 91.7266 48.9043 93.3125C49.3965 92.6016 50.0345 92.0273 50.8184 91.5898C51.6113 91.1523 52.5456 90.9336 53.6211 90.9336C56.8659 90.9336 58.5156 92.6517 58.5703 96.0879V106H56.041V96.2383C56.041 95.181 55.7995 94.3926 55.3164 93.873C54.8333 93.3444 54.0221 93.0801 52.8828 93.0801C51.944 93.0801 51.1647 93.3626 50.5449 93.9277C49.9251 94.4837 49.5651 95.2357 49.4648 96.1836V106H46.9219V96.3066C46.9219 94.1556 45.8691 93.0801 43.7637 93.0801C42.1048 93.0801 40.9701 93.7865 40.3594 95.1992V106H37.8301V91.207H40.2227ZM68.5371 106.273C66.5319 106.273 64.9004 105.617 63.6426 104.305C62.3848 102.983 61.7559 101.219 61.7559 99.0137V98.5488C61.7559 97.0814 62.0339 95.7734 62.5898 94.625C63.1549 93.4674 63.9388 92.5651 64.9414 91.918C65.9531 91.2617 67.0469 90.9336 68.2227 90.9336C70.1458 90.9336 71.6406 91.5671 72.707 92.834C73.7734 94.1009 74.3066 95.9147 74.3066 98.2754V99.3281H64.2852C64.3216 100.786 64.7454 101.967 65.5566 102.869C66.377 103.762 67.416 104.209 68.6738 104.209C69.5671 104.209 70.3236 104.027 70.9434 103.662C71.5632 103.298 72.1055 102.814 72.5703 102.213L74.1152 103.416C72.8757 105.321 71.0163 106.273 68.5371 106.273ZM68.2227 93.0117C67.2018 93.0117 66.3451 93.3854 65.6523 94.1328C64.9596 94.8711 64.5312 95.9102 64.3672 97.25H71.7773V97.0586C71.7044 95.7734 71.3581 94.7799 70.7383 94.0781C70.1185 93.3672 69.2799 93.0117 68.2227 93.0117Z" fill="white"/>
<g clip-path="url(#clip0)">
<path d="M49.7941 19.4431C49.9797 19.458 50.1663 19.4659 50.3539 19.4659C53.4652 19.4659 56.7433 17.3709 57.9799 14.592L59.1748 11.9054C60.5126 8.90129 60.1722 7.79073 59.8 7.2171C59.2621 6.39138 58.1575 6.15517 57.1512 6.74568C56.9378 6.87172 56.7433 6.97196 56.5795 7.04838L55.8104 5.78896C55.4134 5.14387 55.07 4.5613 54.7782 4.04523C54.4835 3.52121 54.3058 3.1947 54.2056 3.00911C53.5268 1.83603 52.1711 1.15124 50.0601 0.916029C48.4027 0.731433 45.9077 0.657992 42.4173 0.685781C39.0499 0.717539 36.7742 0.749298 35.5892 0.780064C35.0344 0.791973 34.5253 0.813807 34.0588 0.844573C33.7403 0.865414 33.3145 0.897173 32.9126 1.0113C32.5265 0.907097 32.1613 0.824724 31.8298 0.779071C31.5489 0.740366 31.2919 0.710592 31.0577 0.688758C30.5089 0.635166 29.4936 0.747313 28.7721 0.94481C28.2709 1.08276 27.863 1.22667 27.5375 1.37851C26.7733 1.72587 26.1867 2.25683 25.8404 2.87413C25.6935 3.10041 25.4345 3.53312 25.0752 4.16233C24.7358 4.75086 24.2971 5.48626 23.7523 6.37153L19.8331 12.8195C19.5522 13.279 19.4798 13.8407 19.6276 14.4014C20.108 16.2166 22.9722 17.9217 23.8376 18.401L26.1163 19.6624C27.075 20.1924 28.1726 20.4733 29.2921 20.4733C31.54 20.4733 33.6887 19.3419 34.8985 17.5217L37.8699 13.0507C39.1144 11.179 39.8161 9.96519 40.1912 9.13451L42.0203 12.223C42.8698 13.6581 42.9542 14.7508 42.8867 15.0912C42.061 15.6549 41.9012 16.4618 42.0372 17.0493C42.2297 17.884 42.9323 18.8814 46.6848 19.189L49.7941 19.4431ZM35.3907 11.4013L32.4173 15.8713C31.7514 16.8726 30.5525 17.4949 29.2901 17.4949C28.6738 17.4949 28.0734 17.3431 27.5563 17.0562L25.2776 15.7948C23.8803 15.0217 23.0407 14.2824 22.6814 13.8635L26.289 7.9267C26.8497 7.01563 27.3022 6.25541 27.6565 5.64307C27.9761 5.08333 28.2024 4.70024 28.381 4.42037C28.4366 4.32212 28.5299 4.19608 28.782 4.08195C28.908 4.02339 29.1442 3.92911 29.5571 3.81597C29.9322 3.71375 30.4185 3.65916 30.7808 3.6542C30.9733 3.67206 31.1877 3.69688 31.4169 3.72863C31.8973 3.79612 32.5414 3.97972 33.2828 4.26059C33.9785 4.5216 34.7039 4.96026 35.4393 5.56764C36.1559 6.15617 36.7921 6.95013 37.3716 7.99518L37.4084 8.05373C37.0908 8.68692 36.399 9.88381 35.3907 11.4013ZM44.5828 10.7046L42.3587 6.95112C41.6144 5.64208 40.7281 4.54641 39.7267 3.69191C40.5346 3.68298 41.4397 3.67306 42.4421 3.66412C45.7618 3.63336 48.2112 3.7068 49.7286 3.87552C51.2858 4.0492 51.5935 4.44816 51.6004 4.45015C51.6758 4.59405 51.8674 4.94339 52.183 5.50611C52.4926 6.05494 52.8559 6.66926 53.2727 7.34612L54.5063 9.38461C54.9053 10.0833 55.7508 10.3661 56.6827 10.1547C56.6162 10.3215 56.5398 10.5021 56.4545 10.6946L55.2596 13.3812C54.4547 15.1875 52.048 16.6444 50.0383 16.4757L46.927 16.2206C46.4327 16.1799 46.0248 16.1273 45.6943 16.0707C46.137 14.6843 45.7678 12.7053 44.5828 10.7046Z" fill="white"/>
<path d="M34.7584 36.5609L26.1668 36.6403C26.0894 36.5897 26.014 36.54 25.9306 36.4904C25.9306 36.4904 25.9197 36.4577 25.9187 36.3763C25.9187 36.3753 25.9197 36.2492 26.1182 35.892C26.1261 35.8761 26.2005 35.7312 26.5003 35.367C26.7672 35.0454 27.0441 34.7209 27.321 34.4013C27.4619 34.2415 27.5939 34.0946 27.718 33.9597C27.9314 34.0559 28.1973 34.1889 28.505 34.3636C28.8762 34.575 29.2305 34.6782 29.5907 34.6782H29.5917C30.2031 34.6782 30.7549 34.3676 31.0675 33.8465C31.4625 33.1905 31.6521 32.1216 30.078 29.1582L28.9129 26.9659C27.4411 24.193 23.9338 22.1019 20.754 22.1019L17.8818 22.1872C14.9442 22.2785 13.5547 22.8462 13.2342 24.0878C13.1548 24.3954 12.994 25.4583 14.2633 26.2116C14.4023 26.294 14.5283 26.3724 14.6405 26.4448C14.5343 26.6096 14.4271 26.7852 14.3179 26.9718C13.9557 27.5891 13.6411 28.3225 13.384 29.1562C13.1191 30.0167 12.994 30.9426 13 31.9916C13.0049 32.6169 13.0536 33.1826 13.1458 33.6699C13.2342 34.1363 13.3811 34.6335 13.5835 35.1496C13.8564 35.9763 14.4043 36.7246 15.232 37.4124C15.4096 37.726 15.6032 38.0684 15.8324 38.4694L16.1837 39.0877C16.6978 39.9868 17.2357 40.9356 17.8034 41.939C18.3572 42.9215 18.7582 43.6509 18.9944 44.1055C19.0976 44.3129 19.167 44.4568 19.1988 44.5392C19.2137 44.5789 19.2296 44.6176 19.2484 44.6563C19.6831 45.5773 20.092 46.404 20.4751 47.1374C20.885 47.9115 21.3336 48.6876 21.808 49.4449C22.3657 50.3341 22.9304 51.0417 23.5338 51.6124C24.3258 52.3557 25.1525 52.7329 25.9911 52.7329C25.9961 52.7329 26.009 52.7329 26.014 52.7329L34.9053 52.6515C38.359 52.6197 41.1429 49.7833 41.1111 46.3296L41.0784 42.7687C41.0496 39.3447 38.24 36.5609 34.7584 36.5609ZM18.8892 35.9247C18.4019 35.7064 17.988 35.4642 17.6605 35.2062C17.2953 34.9194 17.1097 34.6861 17.0611 34.6216C16.8874 34.3894 16.6452 34.2217 16.3783 34.1194C16.3753 34.1115 16.3723 34.1026 16.3693 34.0946C16.2274 33.7393 16.1272 33.4098 16.0716 33.1161C16.013 32.8074 15.9803 32.4114 15.9773 31.9728C15.9733 31.2324 16.0557 30.5972 16.2284 30.0325C16.417 29.4222 16.6383 28.9002 16.8864 28.4784C17.2139 27.9186 17.4402 27.6219 17.5345 27.5087C17.6039 27.4264 17.6675 27.3539 17.721 27.2973C18.0307 26.9679 18.1885 26.4607 18.124 26.0131C18.0902 25.7759 18.0198 25.5089 17.7518 25.1715C17.8233 25.1685 17.8967 25.1656 17.9741 25.1636L20.755 25.0792C22.8064 25.0792 25.3391 26.5828 26.2839 28.3622L27.45 30.5556C27.4967 30.6439 27.5413 30.7302 27.584 30.8136C27.0114 30.7441 26.528 30.9089 26.135 31.3088L25.9127 31.5361C25.6795 31.7783 25.3996 32.078 25.0791 32.4422C24.7794 32.7886 24.4886 33.129 24.2037 33.4734C23.8415 33.915 23.6003 34.2663 23.4862 34.5035C23.119 35.1526 22.9354 35.7917 22.9403 36.4031C22.9413 36.4964 22.9503 36.5837 22.9572 36.671L22.7637 36.673C21.2889 36.672 19.9858 36.4209 18.8892 35.9247ZM34.8805 49.6731L26.014 49.7545C25.9792 49.7426 25.8333 49.6831 25.5773 49.4429C25.1664 49.0558 24.7476 48.5239 24.3327 47.8619C23.8971 47.1672 23.4852 46.4546 23.112 45.75C22.7548 45.0652 22.3707 44.2881 21.9618 43.4247C21.9032 43.2827 21.804 43.0634 21.6502 42.7548C21.3941 42.2595 20.9753 41.4993 20.3977 40.4751C20.219 40.1595 20.0464 39.8528 19.8737 39.5481C20.618 39.693 21.3852 39.7844 22.191 39.7844L24.174 39.7665C24.6573 39.7615 25.223 39.7506 25.7271 39.6216L34.817 39.5382C36.6123 39.5382 38.0861 40.9991 38.102 42.7945L38.1348 46.3554C38.1526 48.1686 36.6917 49.6563 34.8805 49.6731Z" fill="white"/>
<path d="M67.3237 26.813L64.7076 21.9322C64.1419 20.896 63.6625 20.0108 63.2725 19.2833L62.9043 18.5995C62.6086 18.0527 62.028 17.7262 61.3511 17.7262C59.9855 17.7262 57.4051 19.198 56.3591 19.8311L53.8035 21.3774C52.0975 22.4085 50.9056 23.931 50.5334 25.5516C50.2714 26.686 50.4491 27.8055 51.0306 28.7036L52.826 31.4756C54.7216 34.3973 55.9939 36.3654 56.6618 37.4134C55.9224 37.4203 54.9598 37.4293 53.7529 37.4402C52.1412 37.4402 51.0455 37.0085 50.7339 36.7395C50.7002 36.2105 50.5185 35.7768 50.193 35.4503C49.8715 35.1288 49.4417 34.9511 48.9832 34.9511C48.228 34.9511 47.2206 35.3302 45.462 38.1448L44.1252 40.2845C42.4291 42.9999 42.435 47.2496 44.1381 49.9599L45.5444 52.1969C47.2752 54.952 48.2835 55.3241 49.0388 55.3241C49.0398 55.3241 49.0398 55.3241 49.0398 55.3241C49.5052 55.3241 49.9399 55.1435 50.2635 54.816C50.6347 54.4409 50.8202 53.9258 50.8143 53.2847C50.8143 53.2747 50.8341 53.2122 50.9244 53.1189C51.1507 52.8897 51.6807 52.6187 52.433 52.6118L55.5473 52.583C56.5685 52.5741 57.5411 52.182 58.4353 51.4188C59.1618 50.7986 59.8634 49.9828 60.5205 48.9953C61.1358 48.0673 61.7025 47.0918 62.2036 46.1013C62.682 45.1605 63.2963 43.8852 64.0675 42.2228C64.3702 41.5995 64.6619 40.9902 64.9319 40.3967L65.6087 39.1561C66.1675 38.1935 66.63 37.3558 66.9793 36.673C67.1709 36.3018 67.3485 35.9188 67.5152 35.5208C67.6075 35.2975 67.6949 35.0613 67.7505 34.8191C67.811 34.7397 67.8824 34.6494 67.9341 34.5789C68.2903 34.0897 68.6814 33.1478 68.8412 32.3926C68.9523 31.8795 69.0049 31.3803 68.999 30.9188C68.993 30.1854 68.8392 29.5413 68.5117 28.9518C68.2953 28.5984 67.9291 27.9385 67.3237 26.813ZM61.3779 40.9465C60.6118 42.597 60.0133 43.8415 59.5478 44.7536C59.0983 45.6448 58.5901 46.5171 58.0393 47.3468C57.5352 48.1051 57.0171 48.7134 56.501 49.1541C56.1487 49.4548 55.8272 49.6027 55.5175 49.6056L52.4062 49.6344C50.9751 49.6473 49.6601 50.1565 48.7996 51.0328C48.7063 51.1281 48.619 51.2263 48.5386 51.3285C48.3937 51.1231 48.2349 50.8859 48.0632 50.612L46.6579 48.375C45.5493 46.6104 45.5454 43.6281 46.649 41.8616L47.9858 39.7218C48.2121 39.3606 48.4155 39.0599 48.5942 38.8117C49.6095 39.8171 51.5348 40.4165 53.75 40.4165C53.7549 40.4165 53.8581 40.4165 53.8621 40.4165C56.8265 40.3888 58.3579 40.3749 58.5137 40.3739C59.7602 40.3262 60.9373 40.0652 62.02 39.5968C61.8196 40.0325 61.6042 40.4801 61.3779 40.9465ZM65.9303 31.7693C65.836 32.208 65.6008 32.7161 65.5264 32.8273C65.4321 32.9563 65.3199 33.1042 65.187 33.2719C65.179 33.2818 65.1681 33.2927 65.1611 33.3037C65.1036 33.3622 65.046 33.4079 64.9914 33.4803L64.8485 33.6649C64.5726 33.9686 64.2253 34.313 63.7985 34.703C63.2308 35.224 62.4984 35.7074 61.6241 36.1381C61.0286 36.4309 60.4143 36.6264 59.7622 36.7286C59.6481 36.5529 59.5012 36.3276 59.3146 36.0369C58.6963 35.0613 57.3645 33.001 55.323 29.8549L53.5276 27.084C53.3837 26.8617 53.352 26.5709 53.4324 26.2185C53.6199 25.4028 54.3524 24.5234 55.3428 23.924L57.8984 22.3778C59.1747 21.6056 60.1642 21.1382 60.7596 20.9C61.1308 21.5908 61.5754 22.4115 62.0875 23.3484L64.6997 28.2223C65.3408 29.4132 65.7189 30.0951 65.9372 30.4504C65.9561 30.4851 66.0176 30.6221 66.0206 30.9525C66.0256 31.1977 65.9948 31.4716 65.9303 31.7693Z" fill="white"/>
</g>
<defs>
<clipPath id="clip0">
<rect width="56" height="56" fill="white" transform="translate(13)"/>
</clipPath>
</defs>
</svg>
