<svg width="120" height="111" viewBox="0 0 120 111" fill="none" xmlns="http://www.w3.org/2000/svg">
<path d="M13.3027 104.805H4.96289L3.08984 110H0.382812L7.98438 90.0938H10.2812L17.8965 110H15.2031L13.3027 104.805ZM5.75586 102.645H12.5234L9.13281 93.334L5.75586 102.645ZM22.5586 95.207L22.627 96.8477C23.7116 95.5716 25.1745 94.9336 27.0156 94.9336C29.0846 94.9336 30.4928 95.7266 31.2402 97.3125C31.7324 96.6016 32.3704 96.0273 33.1543 95.5898C33.9473 95.1523 34.8815 94.9336 35.957 94.9336C39.2018 94.9336 40.8516 96.6517 40.9062 100.088V110H38.377V100.238C38.377 99.181 38.1354 98.3926 37.6523 97.873C37.1693 97.3444 36.3581 97.0801 35.2188 97.0801C34.2799 97.0801 33.5007 97.3626 32.8809 97.9277C32.2611 98.4837 31.901 99.2357 31.8008 100.184V110H29.2578V100.307C29.2578 98.1556 28.2051 97.0801 26.0996 97.0801C24.4408 97.0801 23.306 97.7865 22.6953 99.1992V110H20.166V95.207H22.5586ZM57.2578 102.768C57.2578 105.028 56.7383 106.846 55.6992 108.223C54.6602 109.59 53.2656 110.273 51.5156 110.273C49.6471 110.273 48.2025 109.613 47.1816 108.291L47.0586 110H44.7344V89H47.2637V96.834C48.2845 95.5671 49.6927 94.9336 51.4883 94.9336C53.2839 94.9336 54.6921 95.6126 55.7129 96.9707C56.7428 98.3288 57.2578 100.188 57.2578 102.549V102.768ZM54.7285 102.48C54.7285 100.758 54.3958 99.4271 53.7305 98.4883C53.0651 97.5495 52.1081 97.0801 50.8594 97.0801C49.1914 97.0801 47.9928 97.8548 47.2637 99.4043V105.803C48.0384 107.352 49.2461 108.127 50.8867 108.127C52.099 108.127 53.0423 107.658 53.7168 106.719C54.3913 105.78 54.7285 104.367 54.7285 102.48ZM63.2051 110H60.6758V95.207H63.2051V110ZM60.4707 91.2832C60.4707 90.873 60.5938 90.5267 60.8398 90.2441C61.0951 89.9616 61.4688 89.8203 61.9609 89.8203C62.4531 89.8203 62.8268 89.9616 63.082 90.2441C63.3372 90.5267 63.4648 90.873 63.4648 91.2832C63.4648 91.6934 63.3372 92.0352 63.082 92.3086C62.8268 92.582 62.4531 92.7188 61.9609 92.7188C61.4688 92.7188 61.0951 92.582 60.8398 92.3086C60.5938 92.0352 60.4707 91.6934 60.4707 91.2832ZM73.4043 110.273C71.3991 110.273 69.7676 109.617 68.5098 108.305C67.252 106.983 66.623 105.219 66.623 103.014V102.549C66.623 101.081 66.901 99.7734 67.457 98.625C68.0221 97.4674 68.806 96.5651 69.8086 95.918C70.8203 95.2617 71.9141 94.9336 73.0898 94.9336C75.013 94.9336 76.5078 95.5671 77.5742 96.834C78.6406 98.1009 79.1738 99.9147 79.1738 102.275V103.328H69.1523C69.1888 104.786 69.6126 105.967 70.4238 106.869C71.2441 107.762 72.2832 108.209 73.541 108.209C74.4342 108.209 75.1908 108.027 75.8105 107.662C76.4303 107.298 76.9727 106.814 77.4375 106.213L78.9824 107.416C77.7428 109.321 75.8835 110.273 73.4043 110.273ZM73.0898 97.0117C72.069 97.0117 71.2122 97.3854 70.5195 98.1328C69.8268 98.8711 69.3984 99.9102 69.2344 101.25H76.6445V101.059C76.5716 99.7734 76.2253 98.7799 75.6055 98.0781C74.9857 97.3672 74.1471 97.0117 73.0898 97.0117ZM84.5059 95.207L84.5879 97.0664C85.7181 95.6445 87.1947 94.9336 89.0176 94.9336C92.1439 94.9336 93.7207 96.6973 93.748 100.225V110H91.2188V100.211C91.2096 99.1445 90.9635 98.3561 90.4805 97.8457C90.0065 97.3353 89.2637 97.0801 88.252 97.0801C87.4316 97.0801 86.7116 97.2988 86.0918 97.7363C85.472 98.1738 84.9889 98.748 84.6426 99.459V110H82.1133V95.207H84.5059ZM100.994 91.625V95.207H103.756V97.1621H100.994V106.336C100.994 106.928 101.117 107.375 101.363 107.676C101.609 107.967 102.029 108.113 102.621 108.113C102.913 108.113 103.314 108.059 103.824 107.949V110C103.159 110.182 102.512 110.273 101.883 110.273C100.753 110.273 99.9004 109.932 99.3262 109.248C98.752 108.564 98.4648 107.594 98.4648 106.336V97.1621H95.7715V95.207H98.4648V91.625H100.994ZM112.861 110.273C110.856 110.273 109.225 109.617 107.967 108.305C106.709 106.983 106.08 105.219 106.08 103.014V102.549C106.08 101.081 106.358 99.7734 106.914 98.625C107.479 97.4674 108.263 96.5651 109.266 95.918C110.277 95.2617 111.371 94.9336 112.547 94.9336C114.47 94.9336 115.965 95.5671 117.031 96.834C118.098 98.1009 118.631 99.9147 118.631 102.275V103.328H108.609C108.646 104.786 109.07 105.967 109.881 106.869C110.701 107.762 111.74 108.209 112.998 108.209C113.891 108.209 114.648 108.027 115.268 107.662C115.887 107.298 116.43 106.814 116.895 106.213L118.439 107.416C117.2 109.321 115.34 110.273 112.861 110.273ZM112.547 97.0117C111.526 97.0117 110.669 97.3854 109.977 98.1328C109.284 98.8711 108.855 99.9102 108.691 101.25H116.102V101.059C116.029 99.7734 115.682 98.7799 115.062 98.0781C114.443 97.3672 113.604 97.0117 112.547 97.0117Z" fill="white"/>
<g clip-path="url(#clip0)">
<path d="M76.5117 25.1588L75.7478 23.8679L75.7478 23.8679L75.7477 23.8679L75.7475 23.8681L75.7466 23.8686L75.7429 23.8707L75.7286 23.8792L75.6718 23.9128L75.4506 24.0438L74.6106 24.5411L74.5902 24.5531L74.5702 24.5659C74.5455 24.5816 74.496 24.6097 74.4284 24.6483C74.1576 24.8025 73.5956 25.1226 73.1672 25.4713C72.9575 25.6287 72.7316 25.7984 72.4941 25.9767C72.2127 26.188 71.9151 26.4115 71.6094 26.6411L71.5545 26.6824L71.5036 26.7285C70.969 27.2125 70.3853 27.7387 69.7668 28.2942L69.726 28.3308L69.688 28.3703C69.4259 28.6427 69.1357 28.9437 68.8379 29.2526C68.515 29.5875 68.1831 29.9317 67.8685 30.2588L67.8431 30.2852L67.819 30.3128C66.602 31.7083 65.344 33.2629 64.1911 34.9076C62.4779 37.3391 60.9548 39.8865 59.7363 42.126C59.7324 42.0969 59.7285 42.0677 59.7248 42.0384L59.7232 42.0256L59.7213 42.0129C59.5666 40.9475 59.49 39.769 59.4856 38.476C59.5303 35.9489 59.9426 33.1337 60.9582 30.4177L60.9646 30.4004L60.9707 30.3829C61.4396 29.0283 62.0957 27.6807 62.8758 26.345L62.882 26.3345L62.8879 26.324C63.606 25.0476 64.5523 23.8245 65.5761 22.5549C66.6204 21.3828 67.7605 20.2799 68.9602 19.2831C70.2711 18.2895 71.5259 17.42 72.8743 16.7311C74.3951 16 75.6867 15.4003 77.0722 15.0427L77.0729 15.0425C78.5819 14.6524 79.929 14.3739 81.2252 14.2662C82.61 14.2004 83.8626 14.2363 84.9555 14.3505L84.9695 14.352L84.9835 14.3532C85.7683 14.4203 86.5222 14.6436 87.2864 14.8699C87.4816 14.9277 87.6774 14.9857 87.8745 15.0413L87.8849 15.0442L87.8953 15.047C88.3978 15.1811 88.7747 15.3511 89.1653 15.5274C89.1703 15.5296 89.1752 15.5318 89.1802 15.5341C89.1523 15.6231 89.1249 15.7124 89.0985 15.7986C89.0782 15.8645 89.0586 15.9286 89.0396 15.9896C88.9341 16.3289 88.8246 16.6628 88.6961 16.9764L88.6821 17.0105L88.6699 17.0453C88.4016 17.805 88.0788 18.7282 87.7101 19.7846L87.7061 19.7963L87.7022 19.8081C87.3729 20.8043 86.9993 21.8287 86.595 22.8402L86.5949 22.8402L86.59 22.853C86.487 23.1175 86.387 23.3795 86.2882 23.6384C85.9712 24.4689 85.6664 25.2674 85.3165 26.0145L85.3165 26.0145L85.3119 26.0246C85.211 26.2443 85.1128 26.4614 85.0159 26.6755C84.623 27.5443 84.253 28.3624 83.8211 29.0908L83.8049 29.1183L83.7898 29.1464C82.7095 31.1591 81.3808 33.0713 79.816 34.864L79.799 34.8834L79.7827 34.9034C79.2087 35.6085 78.5743 36.2275 77.8593 36.925C77.6702 37.1094 77.4756 37.2993 77.2749 37.4978C76.4255 38.3043 75.4782 39.0457 74.4648 39.8223C73.4267 40.5653 72.423 41.2571 71.3787 41.8549L71.3768 41.856C70.2598 42.4977 69.2142 43.0813 68.155 43.5725L68.1468 43.5763L68.1387 43.5802C67.0722 44.0904 66.0138 44.539 65.021 44.9187L65.0055 44.9246L64.9901 44.9309C64.5035 45.1295 64.0442 45.2853 63.5883 45.4327C64.6269 42.9951 66.0491 40.0198 67.7254 37.1998L67.7255 37.1998L67.7292 37.1934C68.6546 35.619 69.6875 34.1066 70.7238 32.7088C71.1113 32.2355 71.4902 31.774 71.8577 31.3264C72.0064 31.1453 72.1533 30.9665 72.2981 30.79C72.4953 30.5818 72.6897 30.377 72.8801 30.1762C73.2005 29.8386 73.5099 29.5124 73.8044 29.2007C74.3229 28.7448 74.7977 28.3261 75.2203 27.9531L75.2461 27.9303L75.2708 27.9064C75.4004 27.781 75.5459 27.6687 75.7235 27.5442C75.7876 27.4992 75.8459 27.4594 75.9109 27.4152C75.9418 27.3941 75.9742 27.372 76.0095 27.3478C76.1014 27.2849 76.2082 27.2107 76.3152 27.13C76.6483 26.8967 76.9112 26.712 77.092 26.5848L77.3036 26.4358L77.3582 26.3973L77.3721 26.3875L77.3757 26.385L77.3766 26.3843L77.3769 26.3841L77.3769 26.3841L77.3769 26.3841L76.5117 25.1588ZM76.5117 25.1588L75.7478 23.8679L77.377 26.3841L76.5117 25.1588ZM90.2292 16.0286C90.2302 16.0292 90.2303 16.0293 90.2295 16.0288L90.2292 16.0286Z" stroke="white" stroke-width="3"/>
<path d="M43.4262 26.7087L42.1332 27.469L42.1332 27.469L42.1332 27.4691L42.1334 27.4693L42.134 27.4703L42.1362 27.4742L42.1449 27.4889L42.1789 27.5466L42.3107 27.7698C42.426 27.9649 42.5951 28.2503 42.8107 28.6126L42.8233 28.6338L42.8366 28.6545C42.8917 28.7405 42.9312 28.8102 42.9866 28.9081C43.0299 28.9847 43.0831 29.0785 43.1611 29.2108C43.3045 29.4542 43.4916 29.7518 43.7408 30.0565C43.9442 30.3249 44.1569 30.6092 44.3854 30.9146C44.5506 31.1354 44.724 31.3671 44.9079 31.6117L44.9508 31.6687L44.9988 31.7213C45.3847 32.1439 45.7918 32.5968 46.2249 33.0786C46.336 33.2021 46.4487 33.3275 46.5632 33.4547L46.5998 33.4954L46.6394 33.5334C46.8965 33.7803 47.1652 34.0392 47.4404 34.3046C47.7958 34.6471 48.1622 35.0002 48.5288 35.3516L48.5541 35.3758L48.5804 35.3988C49.9761 36.6166 51.5292 37.8754 53.1743 39.0292C53.8526 39.5071 54.535 39.9421 55.192 40.3547C55.1951 41.464 55.2451 42.5739 55.3505 43.6781C53.2025 43.526 50.9099 43.099 48.6849 42.2654L48.6665 42.2585L48.6479 42.2521C47.2949 41.7852 45.9475 41.1289 44.6153 40.3492L44.6048 40.3431L44.5942 40.3371C43.3146 39.6157 42.088 38.6682 40.8214 37.6483C39.6488 36.6016 38.5461 35.4619 37.5507 34.261C36.5548 32.9493 35.6856 31.6938 34.995 30.3481C34.266 28.828 33.6669 27.5331 33.3062 26.1467C32.9148 24.6348 32.6373 23.2911 32.5331 21.9978C32.4656 20.613 32.5009 19.3594 32.6171 18.267L32.6189 18.2498L32.6203 18.2327C32.6854 17.4503 32.9077 16.6994 33.1333 15.9375C33.1914 15.7414 33.2496 15.5446 33.3055 15.3464L33.3081 15.3373L33.3105 15.328C33.4449 14.8269 33.6129 14.4542 33.7872 14.0673C33.7916 14.0576 33.796 14.0479 33.8003 14.0383C33.8917 14.067 33.9834 14.0952 34.0719 14.1224C34.1356 14.142 34.1977 14.1611 34.2569 14.1795C34.5972 14.2854 34.9327 14.3954 35.2476 14.5236L35.2813 14.5373L35.3156 14.5494C35.6777 14.6768 36.0524 14.8084 36.456 14.9501C36.9367 15.1189 37.4585 15.3021 38.0495 15.5101L38.0633 15.5149L38.0771 15.5195C39.0748 15.8489 40.0987 16.2216 41.1124 16.6247L41.1124 16.6247L41.1255 16.6298C41.3614 16.721 41.5958 16.8103 41.8279 16.8988C42.6851 17.2254 43.5125 17.5407 44.2802 17.901L44.2802 17.9011L44.2921 17.9065C44.5117 18.0073 44.729 18.1054 44.9431 18.2021C45.8123 18.5947 46.6312 18.9646 47.3594 19.3964L47.3864 19.4124L47.414 19.4272C49.4265 20.5094 51.3369 21.8377 53.1312 23.403L53.1518 23.421L53.1731 23.4383C53.8803 24.0111 54.4971 24.645 55.1955 25.3627C55.3787 25.5511 55.5676 25.7452 55.7652 25.9455C56.2551 26.4578 56.719 27.0122 57.1872 27.6023C56.3873 30.1055 55.7951 32.7716 55.4695 35.4939L55.4624 35.4897C53.8902 34.5649 52.3762 33.5284 50.9783 32.4946C50.8898 32.422 50.8017 32.3498 50.714 32.2779C50.1422 31.8091 49.5874 31.3543 49.059 30.9201C48.7913 30.6674 48.5031 30.3943 48.223 30.1289C47.9563 29.8761 47.697 29.6304 47.4698 29.416C47.3912 29.3266 47.3137 29.2386 47.2374 29.1519C46.8714 28.7362 46.5327 28.3515 46.2247 28.0011L46.1996 27.9726L46.1732 27.9454C46.0467 27.8154 45.9337 27.67 45.8105 27.4947C45.7623 27.4261 45.7184 27.3616 45.6692 27.2893C45.6526 27.2649 45.6354 27.2395 45.6172 27.2128C45.5547 27.1213 45.4808 27.0141 45.4013 26.9074C45.1655 26.5725 44.9794 26.3084 44.8516 26.1271L44.7028 25.9161L44.6645 25.8619L44.6548 25.8481L44.6523 25.8446L44.6517 25.8437L44.6515 25.8435L44.6515 25.8434L44.6515 25.8434L43.4262 26.7087ZM43.4262 26.7087L42.1331 27.4689L44.6515 25.8434L43.4262 26.7087Z" stroke="white" stroke-width="3"/>
</g>
<defs>
<clipPath id="clip0">
<rect width="60" height="60" fill="white" transform="translate(31)"/>
</clipPath>
</defs>
</svg>
