<svg width="200" height="116" viewBox="0 0 200 116" fill="none" xmlns="http://www.w3.org/2000/svg">
<path d="M16.0645 92.2539H9.66602V110H7.05469V92.2539H0.669922V90.0938H16.0645V92.2539ZM24.7324 97.4766C24.3496 97.4128 23.9349 97.3809 23.4883 97.3809C21.8294 97.3809 20.7038 98.0872 20.1113 99.5V110H17.582V95.207H20.043L20.084 96.916C20.9134 95.5944 22.0892 94.9336 23.6113 94.9336C24.1035 94.9336 24.4772 94.9974 24.7324 95.125V97.4766ZM35.6562 110C35.5104 109.708 35.3919 109.189 35.3008 108.441C34.125 109.663 32.7214 110.273 31.0898 110.273C29.6315 110.273 28.4329 109.863 27.4941 109.043C26.5645 108.214 26.0996 107.165 26.0996 105.898C26.0996 104.358 26.6829 103.164 27.8496 102.316C29.0254 101.46 30.6751 101.031 32.7988 101.031H35.2598V99.8691C35.2598 98.985 34.9954 98.2832 34.4668 97.7637C33.9382 97.235 33.1589 96.9707 32.1289 96.9707C31.2266 96.9707 30.4701 97.1986 29.8594 97.6543C29.2487 98.11 28.9434 98.6615 28.9434 99.3086H26.4004C26.4004 98.5703 26.6602 97.8594 27.1797 97.1758C27.7083 96.4831 28.4193 95.9362 29.3125 95.5352C30.2148 95.1341 31.2038 94.9336 32.2793 94.9336C33.9837 94.9336 35.319 95.362 36.2852 96.2188C37.2513 97.0664 37.7526 98.2376 37.7891 99.7324V106.541C37.7891 107.899 37.9622 108.979 38.3086 109.781V110H35.6562ZM31.459 108.072C32.252 108.072 33.0039 107.867 33.7148 107.457C34.4258 107.047 34.9408 106.514 35.2598 105.857V102.822H33.2773C30.1784 102.822 28.6289 103.729 28.6289 105.543C28.6289 106.336 28.8932 106.956 29.4219 107.402C29.9505 107.849 30.6296 108.072 31.459 108.072ZM44.1465 95.207L44.2285 97.0664C45.3587 95.6445 46.8353 94.9336 48.6582 94.9336C51.7845 94.9336 53.3613 96.6973 53.3887 100.225V110H50.8594V100.211C50.8503 99.1445 50.6042 98.3561 50.1211 97.8457C49.6471 97.3353 48.9043 97.0801 47.8926 97.0801C47.0723 97.0801 46.3522 97.2988 45.7324 97.7363C45.1126 98.1738 44.6296 98.748 44.2832 99.459V110H41.7539V95.207H44.1465ZM65.8164 106.076C65.8164 105.393 65.5566 104.864 65.0371 104.49C64.5267 104.107 63.6289 103.779 62.3438 103.506C61.0677 103.232 60.0514 102.904 59.2949 102.521C58.5475 102.139 57.9915 101.683 57.627 101.154C57.2715 100.626 57.0938 99.9967 57.0938 99.2676C57.0938 98.0553 57.6042 97.0299 58.625 96.1914C59.6549 95.3529 60.9674 94.9336 62.5625 94.9336C64.2396 94.9336 65.5977 95.3665 66.6367 96.2324C67.6849 97.0983 68.209 98.2057 68.209 99.5547H65.666C65.666 98.862 65.3698 98.265 64.7773 97.7637C64.194 97.2624 63.4557 97.0117 62.5625 97.0117C61.6419 97.0117 60.9219 97.2122 60.4023 97.6133C59.8828 98.0143 59.623 98.5384 59.623 99.1855C59.623 99.7962 59.8646 100.257 60.3477 100.566C60.8307 100.876 61.7012 101.173 62.959 101.455C64.2259 101.738 65.2513 102.075 66.0352 102.467C66.819 102.859 67.3978 103.333 67.7715 103.889C68.1543 104.436 68.3457 105.105 68.3457 105.898C68.3457 107.22 67.8171 108.282 66.7598 109.084C65.7025 109.877 64.3307 110.273 62.6445 110.273C61.4596 110.273 60.4115 110.064 59.5 109.645C58.5885 109.225 57.873 108.642 57.3535 107.895C56.8431 107.138 56.5879 106.322 56.5879 105.447H59.1172C59.1628 106.295 59.5 106.969 60.1289 107.471C60.7669 107.963 61.6055 108.209 62.6445 108.209C63.6016 108.209 64.3672 108.018 64.9414 107.635C65.5247 107.243 65.8164 106.723 65.8164 106.076ZM72.8848 110V97.1621H70.5469V95.207H72.8848V93.6895C72.8848 92.1035 73.3086 90.8776 74.1562 90.0117C75.0039 89.1458 76.2025 88.7129 77.752 88.7129C78.3353 88.7129 78.9141 88.7904 79.4883 88.9453L79.3516 90.9961C78.9232 90.9141 78.4674 90.873 77.9844 90.873C77.1641 90.873 76.5306 91.1146 76.084 91.5977C75.6374 92.0716 75.4141 92.7552 75.4141 93.6484V95.207H78.5723V97.1621H75.4141V110H72.8848ZM80.7051 102.467C80.7051 101.018 80.9876 99.7142 81.5527 98.5566C82.127 97.3991 82.9199 96.5059 83.9316 95.877C84.9525 95.248 86.1146 94.9336 87.418 94.9336C89.4323 94.9336 91.0592 95.6309 92.2988 97.0254C93.5475 98.4199 94.1719 100.275 94.1719 102.59V102.768C94.1719 104.208 93.8939 105.502 93.3379 106.65C92.791 107.79 92.0026 108.678 90.9727 109.316C89.9518 109.954 88.776 110.273 87.4453 110.273C85.4401 110.273 83.8132 109.576 82.5645 108.182C81.3249 106.787 80.7051 104.941 80.7051 102.645V102.467ZM83.248 102.768C83.248 104.408 83.6263 105.725 84.3828 106.719C85.1484 107.712 86.1693 108.209 87.4453 108.209C88.7305 108.209 89.7513 107.708 90.5078 106.705C91.2643 105.693 91.6426 104.281 91.6426 102.467C91.6426 100.844 91.2552 99.5319 90.4805 98.5293C89.7148 97.5176 88.694 97.0117 87.418 97.0117C86.1693 97.0117 85.1621 97.5085 84.3965 98.502C83.6309 99.4954 83.248 100.917 83.248 102.768ZM104.494 97.4766C104.111 97.4128 103.697 97.3809 103.25 97.3809C101.591 97.3809 100.465 98.0872 99.873 99.5V110H97.3438V95.207H99.8047L99.8457 96.916C100.675 95.5944 101.851 94.9336 103.373 94.9336C103.865 94.9336 104.239 94.9974 104.494 95.125V97.4766ZM109.211 95.207L109.279 96.8477C110.364 95.5716 111.827 94.9336 113.668 94.9336C115.737 94.9336 117.145 95.7266 117.893 97.3125C118.385 96.6016 119.023 96.0273 119.807 95.5898C120.6 95.1523 121.534 94.9336 122.609 94.9336C125.854 94.9336 127.504 96.6517 127.559 100.088V110H125.029V100.238C125.029 99.181 124.788 98.3926 124.305 97.873C123.822 97.3444 123.01 97.0801 121.871 97.0801C120.932 97.0801 120.153 97.3626 119.533 97.9277C118.913 98.4837 118.553 99.2357 118.453 100.184V110H115.91V100.307C115.91 98.1556 114.857 97.0801 112.752 97.0801C111.093 97.0801 109.958 97.7865 109.348 99.1992V110H106.818V95.207H109.211ZM140.52 110C140.374 109.708 140.255 109.189 140.164 108.441C138.988 109.663 137.585 110.273 135.953 110.273C134.495 110.273 133.296 109.863 132.357 109.043C131.428 108.214 130.963 107.165 130.963 105.898C130.963 104.358 131.546 103.164 132.713 102.316C133.889 101.46 135.538 101.031 137.662 101.031H140.123V99.8691C140.123 98.985 139.859 98.2832 139.33 97.7637C138.801 97.235 138.022 96.9707 136.992 96.9707C136.09 96.9707 135.333 97.1986 134.723 97.6543C134.112 98.11 133.807 98.6615 133.807 99.3086H131.264C131.264 98.5703 131.523 97.8594 132.043 97.1758C132.572 96.4831 133.283 95.9362 134.176 95.5352C135.078 95.1341 136.067 94.9336 137.143 94.9336C138.847 94.9336 140.182 95.362 141.148 96.2188C142.115 97.0664 142.616 98.2376 142.652 99.7324V106.541C142.652 107.899 142.826 108.979 143.172 109.781V110H140.52ZM136.322 108.072C137.115 108.072 137.867 107.867 138.578 107.457C139.289 107.047 139.804 106.514 140.123 105.857V102.822H138.141C135.042 102.822 133.492 103.729 133.492 105.543C133.492 106.336 133.757 106.956 134.285 107.402C134.814 107.849 135.493 108.072 136.322 108.072ZM152.551 108.209C153.453 108.209 154.242 107.936 154.916 107.389C155.59 106.842 155.964 106.158 156.037 105.338H158.43C158.384 106.186 158.092 106.992 157.555 107.758C157.017 108.523 156.297 109.134 155.395 109.59C154.501 110.046 153.553 110.273 152.551 110.273C150.536 110.273 148.932 109.604 147.738 108.264C146.553 106.915 145.961 105.074 145.961 102.74V102.316C145.961 100.876 146.225 99.5957 146.754 98.4746C147.283 97.3535 148.039 96.4831 149.023 95.8633C150.017 95.2435 151.188 94.9336 152.537 94.9336C154.196 94.9336 155.572 95.4303 156.666 96.4238C157.769 97.4173 158.357 98.707 158.43 100.293H156.037C155.964 99.3359 155.6 98.5521 154.943 97.9414C154.296 97.3216 153.494 97.0117 152.537 97.0117C151.252 97.0117 150.254 97.4766 149.543 98.4062C148.841 99.3268 148.49 100.662 148.49 102.412V102.891C148.49 104.595 148.841 105.908 149.543 106.828C150.245 107.749 151.247 108.209 152.551 108.209ZM164.021 110H161.492V95.207H164.021V110ZM161.287 91.2832C161.287 90.873 161.41 90.5267 161.656 90.2441C161.911 89.9616 162.285 89.8203 162.777 89.8203C163.27 89.8203 163.643 89.9616 163.898 90.2441C164.154 90.5267 164.281 90.873 164.281 91.2832C164.281 91.6934 164.154 92.0352 163.898 92.3086C163.643 92.582 163.27 92.7188 162.777 92.7188C162.285 92.7188 161.911 92.582 161.656 92.3086C161.41 92.0352 161.287 91.6934 161.287 91.2832ZM167.412 102.467C167.412 101.018 167.695 99.7142 168.26 98.5566C168.834 97.3991 169.627 96.5059 170.639 95.877C171.66 95.248 172.822 94.9336 174.125 94.9336C176.139 94.9336 177.766 95.6309 179.006 97.0254C180.255 98.4199 180.879 100.275 180.879 102.59V102.768C180.879 104.208 180.601 105.502 180.045 106.65C179.498 107.79 178.71 108.678 177.68 109.316C176.659 109.954 175.483 110.273 174.152 110.273C172.147 110.273 170.52 109.576 169.271 108.182C168.032 106.787 167.412 104.941 167.412 102.645V102.467ZM169.955 102.768C169.955 104.408 170.333 105.725 171.09 106.719C171.855 107.712 172.876 108.209 174.152 108.209C175.438 108.209 176.458 107.708 177.215 106.705C177.971 105.693 178.35 104.281 178.35 102.467C178.35 100.844 177.962 99.5319 177.188 98.5293C176.422 97.5176 175.401 97.0117 174.125 97.0117C172.876 97.0117 171.869 97.5085 171.104 98.502C170.338 99.4954 169.955 100.917 169.955 102.768ZM175.273 89H178.336L174.672 93.0195H172.635L175.273 89ZM186.443 95.207L186.525 97.0664C187.656 95.6445 189.132 94.9336 190.955 94.9336C194.081 94.9336 195.658 96.6973 195.686 100.225V110H193.156V100.211C193.147 99.1445 192.901 98.3561 192.418 97.8457C191.944 97.3353 191.201 97.0801 190.189 97.0801C189.369 97.0801 188.649 97.2988 188.029 97.7363C187.41 98.1738 186.926 98.748 186.58 99.459V110H184.051V95.207H186.443Z" fill="white"/>
<g clip-path="url(#clip0)">
<path d="M103.987 29.3295H110.138C110.139 29.3295 110.14 29.3295 110.142 29.3295H116.73C119.136 29.3295 121.295 28.4189 122.973 26.696C124.421 25.2081 125.481 23.1588 126.036 20.7699C126.656 18.1053 126.969 17.0198 127.726 15.5873C127.753 15.5444 127.777 15.4996 127.798 15.4531C128.191 14.7241 128.701 13.8929 129.422 12.7178C129.999 11.7782 130.148 10.7264 129.853 9.67647C129.448 8.23475 128.18 6.84902 126.462 5.96991C125.152 5.2996 123.483 5.29149 121.501 5.94611C119.888 6.47831 118.101 7.45124 116.281 8.67383C116.178 8.72252 116.087 8.78566 116.007 8.85939C111.373 12.0293 106.573 16.7509 103.945 19.8862C104.004 19.647 104.035 19.3986 104.035 19.1451C104.035 18.097 103.507 17.1699 102.703 16.6158C102.945 10.7206 107 5.60883 112.731 4.07C113.318 3.91236 113.666 3.30877 113.509 2.72168C113.351 2.13474 112.748 1.787 112.16 1.94436C105.646 3.69392 100.994 9.4158 100.528 16.0758H99.3421C98.877 9.4158 94.2249 3.69379 87.71 1.94436C87.1232 1.78672 86.5195 2.13487 86.3618 2.72168C86.2042 3.30877 86.5522 3.91222 87.1392 4.07C92.8696 5.60896 96.9247 10.7209 97.1679 16.6156C96.3637 17.1695 95.8354 18.0969 95.8354 19.1451C95.8354 19.3265 95.8511 19.5056 95.8817 19.6804C93.2199 16.5473 88.5274 11.9611 83.9933 8.85953C83.9136 8.78566 83.8219 8.72266 83.7195 8.67383C81.8994 7.45124 80.1119 6.47831 78.4997 5.94611C76.5174 5.29162 74.8482 5.29974 73.5383 5.96991C71.8202 6.8493 70.5526 8.23489 70.1478 9.6766C69.8529 10.7267 70.0019 11.7783 70.5785 12.7181C71.2998 13.8934 71.8099 14.7243 72.203 15.4535C72.2238 15.4999 72.2477 15.5444 72.2744 15.5873C73.0312 17.0198 73.3447 18.1052 73.9643 20.77C74.5199 23.1589 75.5792 25.2082 77.0279 26.6962C78.7052 28.4189 80.864 29.3295 83.2707 29.3295H89.8588C89.86 29.3295 89.8611 29.3295 89.8619 29.3295H95.883C95.9923 30.0423 96.2875 30.7085 96.7453 31.2729V35.3125C95.5253 36.5012 92.4413 39.328 89.171 41.6436C84.6513 44.8435 82.2986 45.2541 81.6032 44.572C81.6024 44.5712 81.6016 44.5703 81.6008 44.5695C80.8556 43.829 81.7906 39.6494 87.3973 32.8981C87.7857 32.4305 87.7214 31.7367 87.2539 31.3484C86.7865 30.9599 86.0926 31.0246 85.7043 31.4919C83.1754 34.5372 81.2616 37.4547 80.1701 39.9292C79.1705 42.195 78.923 43.9597 79.4281 45.1963L75.3173 49.2887C74.5622 47.7404 74.1385 46.0026 74.1385 44.1673C74.1385 40.9305 76.47 37.6052 81.9341 33.0483C82.4009 32.6592 82.4637 31.9652 82.0745 31.4983C81.6851 31.0315 80.9913 30.9685 80.5245 31.358C76.2784 34.899 71.9377 39.19 71.9377 44.1672C71.9377 51.846 78.185 58.0932 85.8642 58.0932C90.6911 58.0932 95.1665 55.528 97.6844 51.5049C98.2617 52.0801 99.0575 52.4363 99.9349 52.4363C100.853 52.4363 101.683 52.046 102.265 51.4228C104.773 55.493 109.276 58.0932 114.136 58.0932C121.815 58.0932 128.063 51.846 128.063 44.1672C128.063 39.1987 123.742 34.921 119.516 31.392C119.05 31.0023 118.356 31.0648 117.966 31.5314C117.577 31.9979 117.639 32.6919 118.106 33.0815C123.542 37.6213 125.862 40.9365 125.862 44.1673C125.862 46.0027 125.438 47.7406 124.683 49.2887L120.572 45.1968C121.076 43.963 120.831 42.2036 119.837 39.9455C118.752 37.4792 116.847 34.5699 114.329 31.5318C113.941 31.0637 113.247 30.999 112.779 31.3868C112.311 31.7747 112.247 32.4684 112.634 32.9363C118.214 39.6668 119.142 43.8325 118.399 44.5696C118.399 44.5703 118.398 44.571 118.397 44.5717C117.702 45.2544 115.349 44.8438 110.829 41.6437C107.435 39.2405 104.242 36.2866 103.124 35.1847V31.2732C103.582 30.709 103.878 30.0426 103.987 29.3295ZM116.73 27.1286H112.822C113.981 25.9373 115.073 24.7276 116.079 23.5232L122.774 23.2417C121.743 25.1444 119.907 27.1286 116.73 27.1286ZM122.19 8.03612C123.593 7.57284 124.693 7.53721 125.459 7.92938C126.624 8.52513 127.495 9.42254 127.734 10.2717C127.862 10.7283 127.801 11.152 127.546 11.5669C126.96 12.5217 126.5 13.2771 126.125 13.9412L122.033 14.1824C122.981 11.6866 122.917 9.83424 121.825 8.75774C121.67 8.60533 121.501 8.47327 121.318 8.36185C121.614 8.23929 121.905 8.13049 122.19 8.03612ZM120.987 16.4487L125.029 16.2106C124.63 17.2513 124.323 18.4213 123.892 20.2716C123.847 20.4664 123.784 20.7144 123.698 21.0001L117.884 21.2446C119.074 19.6551 120.088 18.1039 120.879 16.6504C120.916 16.5827 120.952 16.5157 120.987 16.4487ZM104.035 23.4805C104.04 23.4705 104.045 23.4603 104.05 23.4499C104.9 21.7358 111.191 14.774 117.199 10.6747C119.003 9.95405 119.986 10.0349 120.28 10.3249C120.626 10.6658 120.791 12.2065 118.946 15.5983C117.233 18.7452 114.394 22.4017 110.95 25.8943C110.542 26.3087 110.122 26.7226 109.699 27.1288H104.035V23.4805H104.035ZM73.8755 13.9412C73.4999 13.2771 73.0402 12.5218 72.4542 11.567C72.1996 11.1522 72.1382 10.7283 72.2666 10.2717C72.5049 9.42254 73.3765 8.52513 74.5409 7.92938C75.3074 7.53721 76.4074 7.57284 77.8099 8.03612C78.0957 8.13049 78.3862 8.23929 78.6821 8.36185C78.4989 8.47327 78.33 8.60519 78.1752 8.75774C77.0836 9.83397 77.0196 11.6866 77.9675 14.1824L73.8755 13.9412ZM76.3026 21.0001C76.2166 20.7144 76.153 20.4664 76.1076 20.2716C75.6775 18.4213 75.3708 17.2513 74.9714 16.2106L79.0127 16.4487C79.0483 16.5157 79.0845 16.5828 79.1213 16.6504C79.9123 18.1039 80.9257 19.6553 82.1156 21.2446L76.3026 21.0001ZM83.2706 27.1286C80.0933 27.1286 78.2567 25.1443 77.2262 23.2417L83.9208 23.5232C84.9267 24.7276 86.0188 25.9373 87.1785 27.1286H83.2706ZM95.8354 27.1286H90.3013C89.8786 26.7227 89.459 26.3087 89.0502 25.8941C85.6065 22.4015 82.7668 18.7451 81.0545 15.5982C79.2088 12.2065 79.3749 10.6658 79.7205 10.3249C80.0146 10.0348 80.9977 9.95378 82.8016 10.6747C88.5898 14.6243 94.6415 21.2315 95.8354 23.2416V27.1286ZM84.9703 55.8588C81.5154 55.5972 78.4733 53.8315 76.4998 51.2169L80.9712 46.7658C82.8518 47.604 85.7804 46.6392 89.8604 43.8454L84.9703 55.8588ZM96.7452 48.5198C95.1535 52.465 91.5168 55.2431 87.3734 55.7926L93.2763 41.2916C94.5988 40.228 95.7987 39.1834 96.7452 38.3253V48.5198ZM101.346 21.4391C101.661 21.7887 101.834 22.2379 101.834 22.7036V28.702C101.834 29.2155 101.629 29.6977 101.257 30.0599C101.044 30.2671 100.924 30.5515 100.924 30.8485V49.2468C100.924 49.7919 100.48 50.2354 99.9349 50.2354C99.3898 50.2354 98.9462 49.7919 98.9462 49.2468V30.8485C98.9462 30.5517 98.8261 30.2672 98.6134 30.0602C98.2412 29.6977 98.0364 29.2155 98.0364 28.7021V22.7038C98.0364 22.2379 98.2094 21.7889 98.5236 21.4392C98.7282 21.2116 98.8286 20.9091 98.8009 20.6044C98.7733 20.2996 98.62 20.0202 98.3778 19.8331C98.1609 19.6654 98.0364 19.4148 98.0364 19.1455C98.0364 18.6668 98.4258 18.2771 98.9045 18.2771H100.965C101.444 18.2771 101.834 18.6667 101.834 19.1455C101.834 19.4148 101.709 19.6654 101.492 19.8331C101.25 20.0202 101.097 20.2997 101.069 20.6044C101.041 20.9089 101.142 21.2114 101.346 21.4391ZM119.029 46.7656L123.5 51.2167C121.527 53.8314 118.485 55.597 115.03 55.8586L110.139 43.8453C114.22 46.639 117.148 47.6038 119.029 46.7656ZM106.724 41.2914L112.627 55.7926C108.419 55.2344 104.733 52.3777 103.182 48.3343C103.165 48.2906 103.146 48.2487 103.124 48.2085V38.2068C104.09 39.0862 105.34 40.1785 106.724 41.2914Z" fill="white"/>
</g>
<defs>
<clipPath id="clip0">
<rect width="60" height="60" fill="white" transform="translate(70)"/>
</clipPath>
</defs>
</svg>
