<svg width="134" height="117" viewBox="0 0 134 117" fill="none" xmlns="http://www.w3.org/2000/svg">
<path d="M13.5625 100.799H4.93555V107.854H14.957V110H2.31055V90.0938H14.8203V92.2539H4.93555V98.6523H13.5625V100.799ZM16.9395 102.48C16.9395 100.211 17.4772 98.388 18.5527 97.0117C19.6283 95.6263 21.0365 94.9336 22.7773 94.9336C24.5091 94.9336 25.8809 95.526 26.8926 96.7109V89H29.4219V110H27.0977L26.9746 108.414C25.9629 109.654 24.5547 110.273 22.75 110.273C21.0365 110.273 19.6374 109.572 18.5527 108.168C17.4772 106.764 16.9395 104.932 16.9395 102.672V102.48ZM19.4688 102.768C19.4688 104.445 19.8151 105.757 20.5078 106.705C21.2005 107.653 22.1576 108.127 23.3789 108.127C24.9831 108.127 26.1543 107.407 26.8926 105.967V99.1719C26.1361 97.7773 24.974 97.0801 23.4062 97.0801C22.1667 97.0801 21.2005 97.5586 20.5078 98.5156C19.8151 99.4727 19.4688 100.89 19.4688 102.768ZM42.4922 108.537C41.5078 109.695 40.0632 110.273 38.1582 110.273C36.5814 110.273 35.3783 109.818 34.5488 108.906C33.7285 107.986 33.3138 106.628 33.3047 104.832V95.207H35.834V104.764C35.834 107.006 36.7454 108.127 38.5684 108.127C40.5007 108.127 41.7858 107.407 42.4238 105.967V95.207H44.9531V110H42.5469L42.4922 108.537ZM54.7422 108.209C55.6445 108.209 56.4329 107.936 57.1074 107.389C57.7819 106.842 58.1556 106.158 58.2285 105.338H60.6211C60.5755 106.186 60.2839 106.992 59.7461 107.758C59.2083 108.523 58.4883 109.134 57.5859 109.59C56.6927 110.046 55.7448 110.273 54.7422 110.273C52.7279 110.273 51.1237 109.604 49.9297 108.264C48.7448 106.915 48.1523 105.074 48.1523 102.74V102.316C48.1523 100.876 48.4167 99.5957 48.9453 98.4746C49.474 97.3535 50.2305 96.4831 51.2148 95.8633C52.2083 95.2435 53.3796 94.9336 54.7285 94.9336C56.3874 94.9336 57.7637 95.4303 58.8574 96.4238C59.9603 97.4173 60.5482 98.707 60.6211 100.293H58.2285C58.1556 99.3359 57.791 98.5521 57.1348 97.9414C56.4876 97.3216 55.6855 97.0117 54.7285 97.0117C53.4434 97.0117 52.4453 97.4766 51.7344 98.4062C51.0326 99.3268 50.6816 100.662 50.6816 102.412V102.891C50.6816 104.595 51.0326 105.908 51.7344 106.828C52.4362 107.749 53.4388 108.209 54.7422 108.209ZM72.5977 110C72.4518 109.708 72.3333 109.189 72.2422 108.441C71.0664 109.663 69.6628 110.273 68.0312 110.273C66.5729 110.273 65.3743 109.863 64.4355 109.043C63.5059 108.214 63.041 107.165 63.041 105.898C63.041 104.358 63.6243 103.164 64.791 102.316C65.9668 101.46 67.6165 101.031 69.7402 101.031H72.2012V99.8691C72.2012 98.985 71.9368 98.2832 71.4082 97.7637C70.8796 97.235 70.1003 96.9707 69.0703 96.9707C68.168 96.9707 67.4115 97.1986 66.8008 97.6543C66.1901 98.11 65.8848 98.6615 65.8848 99.3086H63.3418C63.3418 98.5703 63.6016 97.8594 64.1211 97.1758C64.6497 96.4831 65.3607 95.9362 66.2539 95.5352C67.1562 95.1341 68.1452 94.9336 69.2207 94.9336C70.9251 94.9336 72.2604 95.362 73.2266 96.2188C74.1927 97.0664 74.694 98.2376 74.7305 99.7324V106.541C74.7305 107.899 74.9036 108.979 75.25 109.781V110H72.5977ZM68.4004 108.072C69.1934 108.072 69.9453 107.867 70.6562 107.457C71.3672 107.047 71.8822 106.514 72.2012 105.857V102.822H70.2188C67.1198 102.822 65.5703 103.729 65.5703 105.543C65.5703 106.336 65.8346 106.956 66.3633 107.402C66.8919 107.849 67.571 108.072 68.4004 108.072ZM84.6289 108.209C85.5312 108.209 86.3197 107.936 86.9941 107.389C87.6686 106.842 88.0423 106.158 88.1152 105.338H90.5078C90.4622 106.186 90.1706 106.992 89.6328 107.758C89.0951 108.523 88.375 109.134 87.4727 109.59C86.5794 110.046 85.6315 110.273 84.6289 110.273C82.6146 110.273 81.0104 109.604 79.8164 108.264C78.6315 106.915 78.0391 105.074 78.0391 102.74V102.316C78.0391 100.876 78.3034 99.5957 78.832 98.4746C79.3607 97.3535 80.1172 96.4831 81.1016 95.8633C82.0951 95.2435 83.2663 94.9336 84.6152 94.9336C86.2741 94.9336 87.6504 95.4303 88.7441 96.4238C89.847 97.4173 90.4349 98.707 90.5078 100.293H88.1152C88.0423 99.3359 87.6777 98.5521 87.0215 97.9414C86.3743 97.3216 85.5723 97.0117 84.6152 97.0117C83.3301 97.0117 82.332 97.4766 81.6211 98.4062C80.9193 99.3268 80.5684 100.662 80.5684 102.412V102.891C80.5684 104.595 80.9193 105.908 81.6211 106.828C82.3229 107.749 83.3255 108.209 84.6289 108.209ZM96.0996 110H93.5703V95.207H96.0996V110ZM93.3652 91.2832C93.3652 90.873 93.4883 90.5267 93.7344 90.2441C93.9896 89.9616 94.3633 89.8203 94.8555 89.8203C95.3477 89.8203 95.7214 89.9616 95.9766 90.2441C96.2318 90.5267 96.3594 90.873 96.3594 91.2832C96.3594 91.6934 96.2318 92.0352 95.9766 92.3086C95.7214 92.582 95.3477 92.7188 94.8555 92.7188C94.3633 92.7188 93.9896 92.582 93.7344 92.3086C93.4883 92.0352 93.3652 91.6934 93.3652 91.2832ZM99.4902 102.467C99.4902 101.018 99.7728 99.7142 100.338 98.5566C100.912 97.3991 101.705 96.5059 102.717 95.877C103.738 95.248 104.9 94.9336 106.203 94.9336C108.217 94.9336 109.844 95.6309 111.084 97.0254C112.333 98.4199 112.957 100.275 112.957 102.59V102.768C112.957 104.208 112.679 105.502 112.123 106.65C111.576 107.79 110.788 108.678 109.758 109.316C108.737 109.954 107.561 110.273 106.23 110.273C104.225 110.273 102.598 109.576 101.35 108.182C100.11 106.787 99.4902 104.941 99.4902 102.645V102.467ZM102.033 102.768C102.033 104.408 102.411 105.725 103.168 106.719C103.934 107.712 104.954 108.209 106.23 108.209C107.516 108.209 108.536 107.708 109.293 106.705C110.049 105.693 110.428 104.281 110.428 102.467C110.428 100.844 110.04 99.5319 109.266 98.5293C108.5 97.5176 107.479 97.0117 106.203 97.0117C104.954 97.0117 103.947 97.5085 103.182 98.502C102.416 99.4954 102.033 100.917 102.033 102.768ZM107.352 89H110.414L106.75 93.0195H104.713L107.352 89ZM118.521 95.207L118.604 97.0664C119.734 95.6445 121.21 94.9336 123.033 94.9336C126.16 94.9336 127.736 96.6973 127.764 100.225V110H125.234V100.211C125.225 99.1445 124.979 98.3561 124.496 97.8457C124.022 97.3353 123.279 97.0801 122.268 97.0801C121.447 97.0801 120.727 97.2988 120.107 97.7363C119.488 98.1738 119.005 98.748 118.658 99.459V110H116.129V95.207H118.521Z" fill="white"/>
<g clip-path="url(#clip0)">
<path d="M67.9677 45.9447V17.0478C67.9677 16.5132 67.5345 16.08 67 16.08C66.4654 16.08 66.0322 16.5132 66.0322 17.0478V45.9447C66.0322 46.4792 66.4654 46.9124 67 46.9124C67.5345 46.9124 67.9677 46.4792 67.9677 45.9447Z" fill="white"/>
<path d="M96.0323 9.77832C93.9863 9.77832 91.4369 8.89548 88.7377 7.9609C85.3194 6.77716 81.4446 5.43561 77.4263 5.43561C72.7766 5.43561 69.94 7.47316 68.3792 9.18245C67.7955 9.82193 67.3431 10.4627 67.0001 11.0311C66.6572 10.4627 66.2048 9.82193 65.621 9.18245C64.0601 7.47316 61.2236 5.43561 56.5739 5.43561C52.5555 5.43561 48.6809 6.77716 45.2626 7.9609C42.5631 8.89548 40.0137 9.77832 37.9677 9.77832C37.4332 9.77832 37 10.2115 37 10.7461V49.7257C37 50.2603 37.4332 50.6934 37.9677 50.6934C40.3394 50.6934 43.0383 49.7588 45.8956 48.7694C49.1698 47.6357 52.8809 46.3507 56.5737 46.3507C59.7401 46.3507 62.3031 47.3992 64.1915 49.4671C64.5517 49.8617 65.164 49.8894 65.5587 49.529C65.9534 49.1686 65.981 48.5565 65.6206 48.1618C64.0597 46.4526 61.2232 44.4151 56.5737 44.4151C52.5552 44.4151 48.6806 45.7566 45.2623 46.9404C42.9739 47.733 40.793 48.488 38.9355 48.6996V11.6658C41.0634 11.4631 43.42 10.647 45.8956 9.7898C49.1698 8.65612 52.8809 7.37109 56.5737 7.37109C64.0422 7.37109 65.9963 13.3017 66.0748 13.551C66.1997 13.9572 66.575 14.2346 67 14.2346C67.425 14.2346 67.8003 13.9573 67.9252 13.551C67.944 13.4892 69.9101 7.37109 77.4263 7.37109C81.1191 7.37109 84.8302 8.65612 88.1044 9.7898C90.5801 10.6471 92.9366 11.4631 95.0645 11.6658V48.6996C93.207 48.488 91.0261 47.733 88.7377 46.9405C85.3194 45.7568 81.4446 44.4152 77.4263 44.4152C72.7765 44.4152 69.9399 46.4528 68.3792 48.1621C68.0188 48.5569 68.0466 49.1689 68.4412 49.5293C68.836 49.8897 69.4481 49.8619 69.8084 49.4674C71.6968 47.3993 74.2597 46.3508 77.4263 46.3508C81.1191 46.3508 84.8302 47.6359 88.1044 48.7695C90.9618 49.759 93.6608 50.6935 96.0323 50.6935C96.5668 50.6935 97 50.2604 97 49.7258V10.7461C97 10.2116 96.5668 9.77832 96.0323 9.77832Z" fill="white"/>
<path d="M96.0323 52.6289C93.9863 52.6289 91.4369 51.7461 88.7377 50.8115C85.3194 49.6277 81.4446 48.2862 77.4263 48.2862C73.0595 48.2862 70.292 50.0834 68.6784 51.7179L65.3214 51.7178C63.7079 50.0832 60.9403 48.2862 56.5737 48.2862C52.5552 48.2862 48.6806 49.6277 45.2623 50.8115C42.5631 51.7461 40.0137 52.6289 37.9677 52.6289C37.4332 52.6289 37 53.0621 37 53.5966C37 54.1312 37.4332 54.5644 37.9677 54.5644C40.3394 54.5644 43.0383 53.6298 45.8956 52.6404C49.1698 51.5067 52.8809 50.2217 56.5737 50.2217C59.7401 50.2217 62.3031 51.2702 64.1915 53.3381C64.3748 53.5388 64.6342 53.6532 64.9061 53.6532L69.0937 53.6533C69.3655 53.6533 69.6249 53.5388 69.8083 53.3382C71.6966 51.2702 74.2596 50.2217 77.4262 50.2217C81.119 50.2217 84.8301 51.5067 88.1043 52.6404C90.9617 53.6298 93.6606 54.5644 96.0321 54.5644C96.5667 54.5644 96.9999 54.1312 96.9999 53.5966C96.9999 53.0621 96.5668 52.6289 96.0323 52.6289Z" fill="white"/>
<path d="M88.4149 13.0902C87.7313 8.46825 83.8001 5 79.0001 5C74.2001 5 70.2689 8.46825 69.5853 13.0902C66.6725 13.9163 64.6001 16.5727 64.6001 19.7062C64.6001 23.495 67.6838 26.5858 71.4796 26.5858C72.8327 26.5858 74.1289 26.1941 75.2399 25.4605C75.9449 25.9234 76.7283 26.251 77.5473 26.4291V38.4433C77.5473 39.2481 78.1953 39.8961 79.0001 39.8961C79.8048 39.8961 80.4529 39.2481 80.4529 38.4433V26.422C81.2719 26.2439 82.0553 25.9163 82.7603 25.4534C83.8713 26.1869 85.1675 26.5786 86.5206 26.5786C90.3093 26.5786 93.4001 23.495 93.4001 19.6991C93.4001 16.5727 91.3277 13.9092 88.4149 13.0902ZM86.5277 23.673C85.495 23.673 84.5194 23.2742 83.7716 22.5549C83.4867 22.2843 82.5538 21.8285 81.7562 22.5549C80.987 23.2528 80.0327 23.673 79.0072 23.673C77.9746 23.673 76.9989 23.2742 76.2583 22.5549C75.6956 22.0136 74.8054 22.0136 74.2357 22.5549C73.4879 23.2742 72.5123 23.673 71.4796 23.673C69.2933 23.673 67.5129 21.8926 67.5129 19.7062C67.5129 17.6552 69.0511 15.9602 71.0808 15.7608C71.8072 15.6896 72.3698 15.0843 72.3912 14.3507C72.4909 10.7401 75.3894 7.91276 79.0072 7.91276C82.6179 7.91276 85.5235 10.7401 85.6232 14.3507C85.6446 15.0843 86.2072 15.6896 86.9336 15.7608C88.9704 15.9602 90.5016 17.6623 90.5016 19.7062C90.4945 21.8926 88.714 23.673 86.5277 23.673Z" fill="white"/>
</g>
<defs>
<clipPath id="clip0">
<rect width="60" height="60" fill="white" transform="translate(37)"/>
</clipPath>
</defs>
</svg>
